<svg width="619" height="482" viewBox="0 0 619 482" fill="none" xmlns="http://www.w3.org/2000/svg">
<path d="M11.0394 95.9805L534.122 0.144507C535.187 -0.0602207 536.283 -0.0472926 537.342 0.182509C538.304 0.393029 539.206 0.814515 539.984 1.4165C540.745 2.00995 541.357 2.77242 541.772 3.64351C542.214 4.58431 542.438 5.61229 542.429 6.6515V475.274C542.439 476.314 542.215 477.342 541.774 478.284C541.36 479.155 540.749 479.918 539.988 480.511C539.211 481.114 538.308 481.536 537.347 481.747C536.288 481.978 535.192 481.992 534.127 481.787L11.0394 385.951C10.6059 385.861 10.2043 385.658 9.8764 385.36C9.49352 385.018 9.17305 384.612 8.92938 384.16C8.64643 383.645 8.43231 383.095 8.29242 382.523C8.13734 381.902 8.05875 381.264 8.05841 380.624V101.324C8.05803 100.681 8.13625 100.042 8.29138 99.4185C8.43127 98.847 8.64545 98.2963 8.92841 97.7805C9.1722 97.3287 9.49266 96.9227 9.87543 96.5805C10.2034 96.2832 10.6049 96.0791 11.0384 95.9895L11.0394 95.9805Z" fill="#E4E4E4"/>
<path d="M3.03937 95.9805L526.122 0.144507C527.187 -0.0602207 528.283 -0.0472926 529.342 0.182509C530.304 0.393029 531.206 0.814515 531.984 1.4165C532.745 2.00995 533.357 2.77242 533.772 3.64351C534.214 4.58431 534.438 5.61229 534.429 6.6515V475.274C534.439 476.314 534.215 477.342 533.774 478.284C533.36 479.155 532.749 479.918 531.988 480.511C531.211 481.114 530.308 481.536 529.347 481.747C528.288 481.978 527.192 481.992 526.127 481.787L3.03937 385.951C2.60592 385.861 2.20435 385.658 1.8764 385.36C1.49352 385.018 1.17305 384.612 0.929382 384.16C0.646433 383.645 0.432313 383.095 0.292419 382.523C0.137344 381.902 0.0587533 381.264 0.0584106 380.624V101.324C0.0580253 100.681 0.136246 100.042 0.291382 99.4185C0.431266 98.847 0.645446 98.2963 0.928406 97.7805C1.1722 97.3287 1.49266 96.9227 1.87543 96.5805C2.20338 96.2832 2.60491 96.0791 3.03839 95.9895L3.03937 95.9805Z" fill="white"/>
<path d="M3.03937 95.9805L526.122 0.144507C527.187 -0.0602207 528.283 -0.0472926 529.342 0.182509C530.304 0.393029 531.206 0.814515 531.984 1.4165C532.745 2.00995 533.357 2.77242 533.772 3.64351C534.214 4.58431 534.438 5.61229 534.429 6.6515V475.274C534.439 476.314 534.215 477.342 533.774 478.284C533.36 479.155 532.749 479.918 531.988 480.511C531.211 481.114 530.308 481.536 529.347 481.747C528.288 481.978 527.192 481.992 526.127 481.787L3.03937 385.951C2.60592 385.861 2.20435 385.658 1.8764 385.36C1.49352 385.018 1.17305 384.612 0.929382 384.16C0.646433 383.645 0.432313 383.095 0.292419 382.523C0.137344 381.902 0.0587533 381.264 0.0584106 380.624V101.324C0.0580253 100.681 0.136246 100.042 0.291382 99.4185C0.431266 98.847 0.645446 98.2963 0.928406 97.7805C1.1722 97.3287 1.49266 96.9227 1.87543 96.5805C2.20338 96.2832 2.60491 96.0791 3.03839 95.9895L3.03937 95.9805ZM1.04938 380.792C1.04921 381.221 1.10161 381.648 1.20538 382.064C1.29865 382.446 1.44152 382.813 1.63037 383.158C1.79301 383.459 2.00689 383.73 2.26239 383.957C2.48105 384.155 2.74869 384.29 3.03741 384.349L526.117 479.122C526.827 479.257 527.557 479.247 528.262 479.092C528.902 478.951 529.502 478.669 530.019 478.268C530.525 477.872 530.932 477.364 531.207 476.784C531.5 476.158 531.649 475.474 531.643 474.784V7.1495C531.649 6.45873 531.501 5.77536 531.208 5.1495C530.933 4.56882 530.527 4.06009 530.021 3.66351C529.504 3.26158 528.905 2.97946 528.265 2.83751C527.56 2.68246 526.83 2.6719 526.12 2.8065L3.03741 97.5825C2.74868 97.6415 2.48102 97.7769 2.26239 97.9745C2.00689 98.2025 1.79301 98.4732 1.63037 98.7745C1.44128 99.1183 1.2981 99.4855 1.20441 99.8665C1.1006 100.283 1.0482 100.71 1.0484 101.139V380.792L1.04938 380.792Z" fill="#CACACA"/>
<path d="M618.458 146.269C618.483 143.072 617.807 139.908 616.477 137.001C615.234 134.315 613.397 131.947 611.105 130.075C608.798 128.203 606.104 126.867 603.218 126.162C600.096 125.408 596.851 125.311 593.689 125.875C590.373 126.452 587.19 127.633 584.3 129.36C581.445 131.059 578.889 133.216 576.735 135.746C574.599 138.239 572.893 141.07 571.685 144.124C570.482 147.153 569.857 150.382 569.843 153.642C569.821 156.725 570.449 159.778 571.685 162.602C572.847 165.226 574.571 167.563 576.735 169.448C578.929 171.346 581.511 172.742 584.3 173.54C587.352 174.401 590.549 174.618 593.689 174.178C597.034 173.717 600.264 172.637 603.213 170.994C606.177 169.349 608.842 167.218 611.097 164.689C613.362 162.164 615.179 159.272 616.47 156.136C617.765 153.006 618.44 149.655 618.458 146.269Z" fill="#E4E4E4"/>
<path d="M618.458 243.269C618.483 240.072 617.807 236.908 616.477 234.001C615.234 231.315 613.397 228.947 611.105 227.075C608.798 225.203 606.104 223.867 603.218 223.162C600.096 222.408 596.851 222.311 593.689 222.875C590.373 223.452 587.19 224.633 584.3 226.36C581.445 228.059 578.889 230.216 576.735 232.746C574.599 235.239 572.893 238.07 571.685 241.124C570.482 244.153 569.857 247.382 569.843 250.642C569.821 253.725 570.449 256.778 571.685 259.602C572.847 262.226 574.571 264.563 576.735 266.448C578.929 268.346 581.511 269.742 584.3 270.54C587.352 271.401 590.549 271.618 593.689 271.178C597.034 270.717 600.264 269.637 603.213 267.994C606.177 266.349 608.842 264.218 611.097 261.689C613.362 259.164 615.179 256.272 616.47 253.136C617.765 250.006 618.44 246.655 618.458 243.269Z" fill="#E4E4E4"/>
<path d="M618.458 340.269C618.483 337.072 617.807 333.908 616.477 331.001C615.234 328.315 613.397 325.947 611.105 324.075C608.798 322.203 606.104 320.867 603.218 320.162C600.096 319.408 596.851 319.311 593.689 319.875C590.373 320.452 587.19 321.633 584.3 323.36C581.445 325.059 578.889 327.216 576.735 329.746C574.599 332.239 572.893 335.07 571.685 338.124C570.482 341.153 569.857 344.382 569.843 347.642C569.821 350.725 570.449 353.778 571.685 356.602C572.847 359.226 574.571 361.563 576.735 363.448C578.929 365.346 581.511 366.742 584.3 367.54C587.352 368.401 590.549 368.618 593.689 368.178C597.034 367.717 600.264 366.637 603.213 364.994C606.177 363.349 608.842 361.218 611.097 358.689C613.362 356.164 615.179 353.272 616.47 350.136C617.765 347.006 618.44 343.655 618.458 340.269Z" fill="#E4E4E4"/>
<path d="M612.458 146.269C612.483 143.072 611.807 139.908 610.477 137.001C609.234 134.315 607.397 131.947 605.105 130.075C602.798 128.203 600.104 126.867 597.218 126.162C594.096 125.408 590.851 125.311 587.689 125.875C584.373 126.452 581.19 127.633 578.3 129.36C575.445 131.059 572.889 133.216 570.735 135.746C568.599 138.239 566.893 141.07 565.685 144.124C564.482 147.153 563.857 150.382 563.843 153.642C563.821 156.725 564.449 159.778 565.685 162.602C566.847 165.226 568.571 167.563 570.735 169.448C572.929 171.346 575.511 172.742 578.3 173.54C581.352 174.401 584.549 174.618 587.689 174.178C591.034 173.717 594.264 172.637 597.213 170.994C600.177 169.349 602.842 167.218 605.097 164.689C607.362 162.164 609.179 159.272 610.47 156.136C611.765 153.006 612.44 149.655 612.458 146.269Z" fill="#605BFF"/>
<path d="M612.459 242.608C612.474 239.363 611.799 236.153 610.478 233.19C609.223 230.398 607.393 227.904 605.106 225.87C602.818 223.837 600.132 222.305 597.219 221.37C594.144 220.391 590.9 220.054 587.69 220.379C584.41 220.7 581.223 221.647 578.301 223.17C575.455 224.65 572.894 226.623 570.736 228.997C568.592 231.344 566.883 234.052 565.686 236.997C564.473 239.98 563.848 243.169 563.845 246.39C563.831 249.517 564.458 252.614 565.687 255.49C566.865 258.226 568.593 260.692 570.763 262.734C572.933 264.775 575.499 266.35 578.302 267.36C581.308 268.44 584.503 268.893 587.691 268.691C590.996 268.488 594.23 267.645 597.215 266.211C603.173 263.346 607.885 258.41 610.47 252.326C611.773 249.251 612.449 245.947 612.459 242.608Z" fill="#605BFF"/>
<path d="M612.459 338.947C612.463 335.719 611.814 332.524 610.55 329.554C609.286 326.584 607.434 323.901 605.106 321.666C602.243 318.924 598.755 316.921 594.944 315.829C591.133 314.738 587.114 314.59 583.234 315.4C579.353 316.209 575.728 317.952 572.671 320.476C569.615 323 567.219 326.231 565.691 329.889C564.189 333.529 563.601 337.481 563.979 341.401C564.357 345.32 565.69 349.088 567.86 352.373C570.031 355.659 572.973 358.363 576.43 360.249C579.886 362.135 583.752 363.146 587.69 363.193C592.51 363.263 597.244 361.908 601.297 359.297C605.35 356.686 608.541 352.936 610.47 348.518C611.782 345.497 612.459 342.24 612.459 338.947Z" fill="#605BFF"/>
<path d="M597.349 146.158L590.087 147.274V140.114C590.091 139.804 590.027 139.497 589.901 139.214C589.783 138.953 589.608 138.721 589.388 138.536C589.166 138.351 588.906 138.218 588.626 138.145C588.321 138.067 588.003 138.054 587.693 138.105C587.364 138.158 587.048 138.272 586.76 138.439C586.473 138.606 586.216 138.819 585.998 139.069C585.781 139.318 585.607 139.601 585.483 139.906C585.36 140.21 585.295 140.534 585.292 140.861V148.011L578.168 149.104C577.844 149.155 577.533 149.266 577.25 149.431C576.682 149.761 576.241 150.27 575.996 150.879C575.875 151.18 575.812 151.502 575.811 151.826C575.809 152.133 575.872 152.437 575.996 152.717C576.111 152.976 576.282 153.206 576.496 153.391C576.714 153.576 576.969 153.711 577.245 153.785C577.544 153.865 577.857 153.882 578.163 153.833L585.297 152.766V159.9C585.295 160.21 585.359 160.517 585.485 160.8C585.603 161.063 585.778 161.296 585.997 161.483C586.218 161.67 586.478 161.807 586.757 161.883C587.061 161.966 587.378 161.984 587.689 161.937C588.018 161.89 588.334 161.781 588.623 161.617C588.91 161.455 589.168 161.245 589.386 160.997C589.604 160.751 589.778 160.47 589.901 160.165C590.024 159.861 590.087 159.536 590.087 159.208V152.048L597.349 150.958C597.683 150.907 598.004 150.795 598.297 150.627C598.589 150.461 598.85 150.248 599.072 149.996C599.292 149.748 599.469 149.465 599.595 149.158C599.721 148.851 599.786 148.523 599.787 148.191C599.789 147.879 599.724 147.569 599.595 147.284C599.474 147.02 599.295 146.786 599.072 146.6C598.846 146.412 598.582 146.275 598.297 146.2C597.987 146.121 597.665 146.107 597.349 146.158Z" fill="white"/>
<path d="M592.252 250.933L572.086 252.395H572.012L581.469 235.225C581.528 235.117 581.612 235.025 581.714 234.957C581.764 234.923 581.818 234.896 581.875 234.876C581.932 234.855 581.992 234.842 582.052 234.837C582.111 234.831 582.17 234.834 582.228 234.845C582.284 234.855 582.338 234.873 582.389 234.899C582.491 234.949 582.576 235.028 582.634 235.126L589.069 245.704L589.379 246.213L592.252 250.933Z" fill="white"/>
<path d="M603.762 250.098L585.97 251.388L589.38 246.212L589.626 245.838L594.098 239.049C594.177 238.943 594.276 238.854 594.389 238.787C594.444 238.754 594.502 238.726 594.562 238.705C594.624 238.682 594.688 238.667 594.754 238.658C594.817 238.649 594.881 238.646 594.945 238.651C595.007 238.655 595.068 238.665 595.128 238.683C595.186 238.7 595.243 238.723 595.297 238.753C595.351 238.782 595.401 238.818 595.447 238.859L595.462 238.877L595.481 238.895L595.496 238.914L595.511 238.933L603.762 250.098Z" fill="white"/>
<path d="M590.307 232.398C589.897 232.434 589.497 232.548 589.13 232.734C588.77 232.918 588.445 233.163 588.171 233.459C587.897 233.754 587.678 234.096 587.525 234.467C587.369 234.844 587.289 235.246 587.288 235.653C587.286 236.048 587.367 236.438 587.525 236.799C587.675 237.141 587.895 237.448 588.171 237.699C588.448 237.951 588.775 238.143 589.13 238.262C589.509 238.389 589.909 238.436 590.307 238.401C590.718 238.367 591.118 238.254 591.486 238.068C591.848 237.886 592.174 237.641 592.45 237.344C592.726 237.049 592.946 236.707 593.101 236.334C593.258 235.957 593.339 235.552 593.34 235.142C593.342 234.747 593.26 234.355 593.101 233.992C592.949 233.65 592.727 233.343 592.45 233.092C592.171 232.842 591.842 232.652 591.486 232.534C591.106 232.409 590.705 232.363 590.307 232.398Z" fill="white"/>
<path d="M372.695 300.844L173.015 111.387L172.159 112.887L371.447 302.447L372.695 300.844Z" fill="#E6E6E6"/>
<path d="M372.664 86.1104L371.412 84.6104L172.178 291.435L173.037 292.86L372.664 86.1104Z" fill="#E6E6E6"/>
<path d="M175.035 108.62L369.135 81.9545C370.032 81.8263 370.947 81.9043 371.81 82.1825C372.631 82.4533 373.381 82.9058 374.003 83.5065C374.646 84.1278 375.152 84.8773 375.488 85.7065C375.855 86.6213 376.041 87.5987 376.035 88.5845V297.524C376.038 298.524 375.852 299.514 375.488 300.444C375.149 301.31 374.645 302.1 374.004 302.772C373.386 303.42 372.639 303.931 371.811 304.272C370.964 304.619 370.05 304.772 369.136 304.72L175.035 294.03C174.38 293.988 173.745 293.781 173.19 293.43C172.602 293.059 172.092 292.577 171.69 292.009C171.246 291.389 170.905 290.701 170.68 289.972C170.433 289.181 170.308 288.356 170.309 287.526V115.506C170.31 114.667 170.435 113.832 170.68 113.029C170.908 112.276 171.248 111.561 171.69 110.909C172.093 110.308 172.601 109.785 173.19 109.364C173.738 108.974 174.37 108.719 175.035 108.62ZM369.135 302.57C369.788 302.606 370.44 302.495 371.044 302.246C371.634 302.001 372.167 301.636 372.608 301.172C373.066 300.691 373.425 300.125 373.666 299.506C373.926 298.843 374.058 298.136 374.056 297.423V88.8435C374.06 88.141 373.927 87.4445 373.666 86.7925C373.427 86.1996 373.067 85.6634 372.608 85.2185C372.164 84.79 371.63 84.4671 371.044 84.2735C370.429 84.0735 369.776 84.0164 369.135 84.1065L175.035 110.411C174.559 110.482 174.107 110.664 173.716 110.943C173.295 111.243 172.931 111.615 172.642 112.043C172.326 112.509 172.082 113.02 171.919 113.558C171.743 114.132 171.654 114.729 171.653 115.329V287.596C171.652 288.19 171.742 288.78 171.919 289.346C172.08 289.868 172.324 290.359 172.642 290.802C172.93 291.207 173.295 291.552 173.716 291.816C174.114 292.065 174.567 292.211 175.035 292.239L369.135 302.57Z" fill="#E6E6E6"/>
<path d="M375.565 326.786C376.081 326.842 376.573 327.033 376.992 327.34C377.454 327.679 377.847 328.104 378.15 328.591C378.494 329.135 378.754 329.727 378.922 330.349C379.107 331.027 379.197 331.728 379.189 332.431C379.185 333.104 379.084 333.773 378.889 334.418C378.719 334.984 378.456 335.519 378.109 335.998C377.807 336.419 377.415 336.769 376.962 337.021C376.534 337.255 376.049 337.364 375.562 337.336L35.7579 309.199C35.4875 309.176 35.2336 309.06 35.0399 308.87C34.7929 308.633 34.5927 308.352 34.4499 308.042C34.269 307.659 34.1347 307.256 34.0499 306.842C33.949 306.362 33.8967 305.874 33.8939 305.384C33.8882 304.899 33.9325 304.415 34.0259 303.939C34.1033 303.534 34.2323 303.141 34.4099 302.77C34.5448 302.473 34.7404 302.208 34.9839 301.991C35.1803 301.816 35.4352 301.722 35.6979 301.727H35.7579L375.565 326.786Z" fill="#E6E6E6"/>
<path d="M375.565 358.806C376.084 358.877 376.575 359.082 376.992 359.399C377.454 359.749 377.846 360.183 378.15 360.677C378.493 361.229 378.753 361.828 378.922 362.456C379.108 363.138 379.198 363.843 379.189 364.551C379.185 365.221 379.084 365.888 378.889 366.53C378.72 367.09 378.456 367.618 378.109 368.089C377.807 368.502 377.416 368.84 376.964 369.08C376.533 369.303 376.047 369.399 375.564 369.357L35.7579 331.871C35.4857 331.84 35.2323 331.717 35.0399 331.522C34.793 331.279 34.593 330.992 34.4498 330.677C34.2689 330.289 34.1347 329.88 34.0499 329.461C33.9491 328.98 33.8968 328.489 33.8939 327.998C33.888 327.514 33.9323 327.031 34.0259 326.556C34.1029 326.155 34.232 325.765 34.4099 325.398C34.5456 325.106 34.7424 324.847 34.9869 324.638C35.1848 324.468 35.4403 324.38 35.7009 324.393H35.7609L375.565 358.806Z" fill="#E6E6E6"/>
<path d="M375.565 390.307C376.086 390.394 376.577 390.612 376.992 390.939C377.454 391.303 377.846 391.746 378.15 392.249C378.493 392.809 378.753 393.415 378.922 394.049C379.107 394.734 379.197 395.441 379.189 396.15C379.186 396.818 379.085 397.482 378.889 398.12C378.721 398.675 378.457 399.195 378.109 399.658C377.807 400.063 377.415 400.392 376.964 400.618C376.53 400.831 376.044 400.914 375.564 400.857L35.7579 354.174C35.4842 354.135 35.2314 354.006 35.0399 353.806C34.7934 353.557 34.5935 353.265 34.4499 352.945C34.2693 352.553 34.1351 352.142 34.0499 351.718C33.9493 351.236 33.897 350.744 33.8939 350.251C33.888 349.769 33.9322 349.287 34.0259 348.813C34.1026 348.415 34.2317 348.029 34.4099 347.665C34.5453 347.378 34.7423 347.124 34.9869 346.921C35.1867 346.756 35.4426 346.675 35.7009 346.695H35.761L375.565 390.307Z" fill="#E6E6E6"/>
<path d="M577.995 328.801L597.393 328.569C597.716 328.557 598.039 328.603 598.347 328.704C598.644 328.801 598.922 328.949 599.17 329.141C599.416 329.332 599.627 329.564 599.794 329.828C599.964 330.098 600.085 330.397 600.149 330.711C600.213 331.085 600.193 331.469 600.092 331.835C600.041 332.017 599.971 332.194 599.882 332.362C599.7 332.703 599.447 333.001 599.139 333.235C598.676 333.585 598.114 333.777 597.534 333.782L591.7 333.835C591.425 333.836 591.156 333.918 590.927 334.071C590.698 334.223 590.518 334.439 590.41 334.692C590.337 334.863 590.299 335.047 590.3 335.233V346.677C590.314 347.308 590.104 347.925 589.706 348.416C589.307 348.908 588.748 349.245 588.127 349.366C587.563 349.46 586.984 349.367 586.479 349.101C585.973 348.836 585.568 348.411 585.327 347.894C585.168 347.553 585.085 347.181 585.085 346.805V335.265C585.085 335.085 585.049 334.906 584.98 334.74C584.911 334.574 584.81 334.423 584.682 334.295C584.555 334.168 584.404 334.067 584.237 333.998C584.071 333.93 583.893 333.894 583.713 333.894L583.7 333.895L578.127 333.939C577.504 333.959 576.895 333.757 576.408 333.37C575.92 332.983 575.586 332.436 575.464 331.826C575.403 331.456 575.422 331.078 575.521 330.716C575.619 330.355 575.795 330.019 576.035 329.732C576.275 329.445 576.575 329.213 576.913 329.052C577.251 328.891 577.62 328.806 577.995 328.801Z" fill="white"/>
<path d="M577.995 344.219C577.441 344.219 576.903 344.397 576.459 344.726C576.015 345.056 575.689 345.52 575.529 346.05C575.369 346.579 575.384 347.146 575.572 347.666C575.759 348.187 576.11 348.633 576.571 348.939C577.031 349.244 577.579 349.394 578.131 349.364C578.683 349.335 579.211 349.128 579.637 348.775C580.063 348.422 580.364 347.941 580.495 347.404C580.626 346.867 580.581 346.301 580.366 345.792C580.17 345.325 579.84 344.927 579.418 344.647C578.996 344.367 578.501 344.218 577.995 344.219Z" fill="white"/>
<path d="M149.346 131.342L343.446 104.676C344.343 104.548 345.258 104.626 346.121 104.904C346.942 105.175 347.691 105.628 348.314 106.228C348.957 106.85 349.463 107.599 349.799 108.428C350.166 109.343 350.352 110.32 350.346 111.306V320.246C350.348 321.245 350.163 322.236 349.799 323.166C349.46 324.031 348.956 324.822 348.315 325.494C347.696 326.142 346.949 326.652 346.122 326.994C345.274 327.341 344.36 327.494 343.447 327.442L149.346 316.752C148.69 316.709 148.056 316.503 147.501 316.152C146.913 315.781 146.403 315.298 146.001 314.731C145.556 314.111 145.215 313.423 144.991 312.694C144.744 311.902 144.619 311.078 144.62 310.248V138.228C144.62 137.389 144.745 136.554 144.991 135.751C145.218 134.998 145.559 134.283 146.001 133.631C146.404 133.03 146.912 132.507 147.501 132.086C148.048 131.696 148.68 131.441 149.346 131.342Z" fill="#605BFF"/>
<path opacity="0.2" d="M149.346 131.342L343.446 104.676C344.343 104.548 345.258 104.626 346.121 104.904C346.942 105.175 347.691 105.628 348.314 106.228C348.957 106.85 349.463 107.599 349.799 108.428C350.166 109.343 350.352 110.32 350.346 111.306V320.246C350.348 321.245 350.163 322.236 349.799 323.166C349.46 324.031 348.956 324.822 348.315 325.494C347.696 326.142 346.949 326.652 346.122 326.994C345.274 327.341 344.36 327.494 343.447 327.442L149.346 316.752C148.69 316.709 148.056 316.503 147.501 316.152C146.913 315.781 146.403 315.298 146.001 314.731C145.556 314.111 145.215 313.423 144.991 312.694C144.744 311.902 144.619 311.078 144.62 310.248V138.228C144.62 137.389 144.745 136.554 144.991 135.751C145.218 134.998 145.559 134.283 146.001 133.631C146.404 133.03 146.912 132.507 147.501 132.086C148.048 131.696 148.68 131.441 149.346 131.342Z" fill="black"/>
<path d="M141.346 131.342L335.446 104.676C336.343 104.548 337.258 104.626 338.121 104.904C338.942 105.175 339.691 105.628 340.314 106.228C340.957 106.85 341.463 107.599 341.799 108.428C342.166 109.343 342.352 110.32 342.346 111.306V320.246C342.348 321.245 342.163 322.236 341.799 323.166C341.46 324.031 340.956 324.822 340.315 325.494C339.696 326.142 338.949 326.652 338.122 326.994C337.274 327.341 336.36 327.494 335.447 327.442L141.346 316.752C140.69 316.709 140.056 316.503 139.501 316.152C138.913 315.781 138.403 315.298 138.001 314.731C137.556 314.111 137.215 313.423 136.991 312.694C136.744 311.902 136.619 311.078 136.62 310.248V138.228C136.62 137.389 136.745 136.554 136.991 135.751C137.218 134.998 137.559 134.283 138.001 133.631C138.404 133.03 138.912 132.507 139.501 132.086C140.048 131.696 140.68 131.441 141.346 131.342Z" fill="#605BFF"/>
</svg>
