<svg width="1399" height="725" viewBox="0 0 1399 725" fill="none" xmlns="http://www.w3.org/2000/svg">
<path d="M764.629 364.406C765.749 370.296 767.093 376.126 768.659 381.896C768.829 382.566 769.019 383.226 769.209 383.896H790.999C792.855 383.898 794.634 384.636 795.947 385.948C797.259 387.26 797.997 389.04 797.999 390.896V453.016C798.659 454.246 799.329 455.466 799.999 456.686C803.459 462.986 807.059 469.216 810.74 475.366C870.746 575.322 954.439 658.966 1054.43 718.916L1048.51 705.556C1050.68 705.406 1052.86 705.256 1055.03 705.106C1102.28 701.876 1149.69 698.296 1195.83 687.676C1244.1 676.566 1291.32 657.296 1329.15 625.346C1366.99 593.386 1394.73 547.746 1398.58 498.366C1399.86 481.395 1398.15 464.331 1393.51 447.956C1384.64 416.436 1365.26 388.076 1337.3 371.296C1293.38 344.946 1236.09 350.316 1189.79 372.236C1143.5 394.146 1105.82 430.416 1069.03 466.056C1106.17 402.358 1157.89 348.375 1219.94 308.536C1240.5 295.376 1262.32 283.656 1279.8 266.606C1297.27 249.566 1310.16 225.676 1307.07 201.466C1303.56 174.006 1281.07 153.166 1258.54 137.096C1249.54 130.676 1240.25 124.586 1230.67 118.986C1203.64 103.146 1174.4 91.1957 1143.52 86.7657C1101.69 80.7557 1056.51 89.8757 1024.44 117.396C988.309 148.406 973.489 198.416 974.899 246.256C952.639 213.896 918.309 189.126 879.539 188.076C839.289 186.996 801.029 212.426 780.869 247.286C760.719 282.136 757.099 324.856 764.629 364.406Z" fill="#E6E6E6"/>
<path d="M1019.29 498.801C995.713 496.725 973.936 494.299 951.092 487.835C928.948 481.569 907.641 471.08 891.877 453.953C874.922 435.531 865.77 411.607 859.313 387.792C855.712 374.514 852.754 361.05 849.963 347.582C846.934 332.968 844.243 318.291 841.89 303.548C837.205 274.203 833.861 244.685 831.857 214.994C831.615 211.39 831.393 207.785 831.191 204.179C831.066 201.954 834.526 201.961 834.651 204.179C836.297 233.445 839.259 262.598 843.536 291.636C847.757 320.166 853.157 348.573 860.008 376.591C865.813 400.327 873.328 424.434 888.214 444.194C902.174 462.723 922.336 474.831 944.106 482.071C966.259 489.438 989.617 492.379 1012.77 494.566C1015.61 494.835 1016.45 495.09 1019.29 495.341C1021.49 495.534 1021.51 498.996 1019.29 498.801Z" fill="white"/>
<path d="M1391.51 450.509C1361.77 452.158 1332.33 457.346 1303.81 465.963C1275.28 474.562 1247.87 486.495 1222.14 501.514C1197.27 516.039 1174.19 533.419 1153.36 553.3C1133.14 572.607 1115.12 594.092 1099.63 617.362C1084.07 640.691 1071.17 665.692 1061.18 691.895C1059.96 695.102 1058.79 698.326 1057.66 701.566C1056.93 703.655 1053.59 702.756 1054.33 700.646C1063.67 673.889 1075.99 648.266 1091.05 624.259C1106.11 600.249 1123.79 577.983 1143.75 557.867C1164.04 537.44 1186.62 519.423 1211.03 504.175C1262.31 472.238 1320.42 452.917 1380.61 447.8C1384.24 447.495 1387.87 447.245 1391.51 447.049C1393.74 446.927 1393.73 450.387 1391.51 450.509Z" fill="white"/>
<path d="M1229.74 123.041C1210.72 129.09 1192.69 137.899 1176.23 149.186C1159.42 160.798 1144.08 174.419 1130.56 189.746C1116.32 205.87 1103.65 223.323 1092.74 241.867C1081.17 261.446 1071.12 281.885 1062.67 303.002C1053.98 324.683 1046.66 346.892 1040.77 369.498C1034.79 392.371 1030.11 415.567 1026.77 438.973C1023.45 462.13 1021.43 485.457 1020.74 508.842C1020.05 531.203 1020.71 553.585 1022.72 575.866C1024.56 596.653 1027.93 617.277 1032.79 637.572C1037.1 655.903 1043.18 673.772 1050.94 690.929C1052.74 694.823 1054.65 698.663 1056.66 702.45C1057.71 704.414 1054.72 706.164 1053.68 704.196C1045.1 687.808 1038.25 670.572 1033.24 652.767C1027.62 632.946 1023.55 612.719 1021.06 592.267C1018.29 570.079 1016.95 547.737 1017.03 525.378C1017.08 501.888 1018.48 478.42 1021.22 455.09C1023.96 431.469 1028.03 408.021 1033.41 384.858C1038.77 361.657 1045.58 338.813 1053.79 316.459C1061.7 294.819 1071.17 273.782 1082.13 253.514C1092.57 234.173 1104.73 215.814 1118.47 198.663C1131.52 182.331 1146.42 167.567 1162.87 154.666C1178.73 142.263 1196.26 132.154 1214.93 124.634C1219.5 122.817 1224.12 121.174 1228.82 119.705C1230.94 119.035 1231.86 122.374 1229.74 123.041Z" fill="white"/>
<path d="M1024.5 724.896C887.81 724.896 777 720.418 777 714.896C777 709.373 887.81 704.896 1024.5 704.896C1161.19 704.896 1272 709.373 1272 714.896C1272 720.418 1161.19 724.896 1024.5 724.896Z" fill="#E6E6E6"/>
<path d="M436 381.896H791C793.386 381.899 795.673 382.848 797.36 384.536C799.047 386.223 799.996 388.51 800 390.896V618.896C799.996 621.281 799.047 623.568 797.36 625.255C795.673 626.943 793.386 627.892 791 627.896H436C433.614 627.892 431.327 626.943 429.64 625.255C427.953 623.568 427.004 621.281 427 618.896V390.896C427.004 388.51 427.953 386.223 429.64 384.536C431.327 382.848 433.614 381.899 436 381.896ZM429 618.896C429.002 620.751 429.74 622.531 431.052 623.843C432.365 625.155 434.144 625.893 436 625.896H791C792.856 625.893 794.635 625.155 795.947 623.843C797.26 622.531 797.998 620.751 798 618.896V390.896C797.998 389.04 797.26 387.26 795.947 385.948C794.635 384.636 792.856 383.898 791 383.896H436C434.144 383.898 432.365 384.636 431.052 385.948C429.74 387.26 429.002 389.04 429 390.896V618.896Z" fill="#3F3D56"/>
<path d="M715.225 495.391H771.225C773.478 495.388 775.639 494.492 777.232 492.899C778.826 491.305 779.722 489.145 779.725 486.891V430.891C779.722 428.638 778.826 426.477 777.232 424.884C775.639 423.29 773.478 422.394 771.225 422.391H715.225C712.971 422.394 710.811 423.29 709.217 424.884C707.624 426.477 706.727 428.638 706.725 430.891V486.891C706.727 489.145 707.624 491.305 709.217 492.899C710.811 494.492 712.971 495.388 715.225 495.391Z" fill="#605BFF"/>
<path d="M454.488 554.9H772.488C774.212 554.9 775.865 554.216 777.084 552.997C778.303 551.778 778.988 550.124 778.988 548.4C778.988 546.676 778.303 545.023 777.084 543.804C775.865 542.585 774.212 541.9 772.488 541.9H454.488C452.764 541.9 451.111 542.585 449.892 543.804C448.673 545.023 447.988 546.676 447.988 548.4C447.988 550.124 448.673 551.778 449.892 552.997C451.111 554.216 452.764 554.9 454.488 554.9Z" fill="#CCCCCC"/>
<path d="M454.275 523.4H772.275C773.999 523.4 775.653 522.716 776.872 521.497C778.091 520.278 778.775 518.624 778.775 516.9C778.775 515.176 778.091 513.523 776.872 512.304C775.653 511.085 773.999 510.4 772.275 510.4H454.275C452.551 510.4 450.898 511.085 449.679 512.304C448.46 513.523 447.775 515.176 447.775 516.9C447.775 518.624 448.46 520.278 449.679 521.497C450.898 522.716 452.551 523.4 454.275 523.4Z" fill="#CCCCCC"/>
<path d="M611.275 480.391H658.275C659.999 480.391 661.653 479.706 662.872 478.487C664.091 477.268 664.775 475.615 664.775 473.891C664.775 472.167 664.091 470.513 662.872 469.294C661.653 468.075 659.999 467.391 658.275 467.391H611.275C609.551 467.391 607.898 468.075 606.679 469.294C605.46 470.513 604.775 472.167 604.775 473.891C604.775 475.615 605.46 477.268 606.679 478.487C607.898 479.706 609.551 480.391 611.275 480.391Z" fill="#CCCCCC"/>
<path d="M454.275 448.4H658.275C659.999 448.4 661.653 447.716 662.872 446.497C664.091 445.278 664.775 443.624 664.775 441.9C664.775 440.176 664.091 438.523 662.872 437.304C661.653 436.085 659.999 435.4 658.275 435.4H454.275C452.551 435.4 450.898 436.085 449.679 437.304C448.46 438.523 447.775 440.176 447.775 441.9C447.775 443.624 448.46 445.278 449.679 446.497C450.898 447.716 452.551 448.4 454.275 448.4Z" fill="#CCCCCC"/>
<path d="M619.275 586.9H772.488C774.212 586.9 775.865 586.216 777.084 584.997C778.303 583.778 778.988 582.124 778.988 580.4C778.988 578.676 778.303 577.023 777.084 575.804C775.865 574.585 774.212 573.9 772.488 573.9H619.275C617.551 573.9 615.898 574.585 614.679 575.804C613.46 577.023 612.775 578.676 612.775 580.4C612.775 582.124 613.46 583.778 614.679 584.997C615.898 586.216 617.551 586.9 619.275 586.9Z" fill="#CCCCCC"/>
</svg>
