<svg width="755" height="510" viewBox="0 0 755 510" fill="none" xmlns="http://www.w3.org/2000/svg">
<path d="M89.4941 117H87.4941V224H89.4941V117Z" fill="#3F3D56"/>
<path d="M89.4941 255.851H87.4941V350H89.4941V255.851Z" fill="#3F3D56"/>
<path d="M239.494 365H84.4941V367H239.494V365Z" fill="#3F3D56"/>
<path d="M20.4941 392H18.4941V477H20.4941V392Z" fill="#3F3D56"/>
<path d="M271.494 492H36.4941V494H271.494V492Z" fill="#3F3D56"/>
<path d="M467.494 49H465.494V150H467.494V49Z" fill="#3F3D56"/>
<path d="M450.495 166H303.461V168H450.495V166Z" fill="#3F3D56"/>
<path d="M288.494 182H286.494V317H288.494V182Z" fill="#3F3D56"/>
<path d="M88.4942 257C85.1319 257 81.8451 256.003 79.0495 254.135C76.2538 252.267 74.0749 249.612 72.7882 246.506C71.5015 243.399 71.1648 239.981 71.8208 236.683C72.4767 233.386 74.0959 230.357 76.4734 227.979C78.8508 225.602 81.8799 223.983 85.1776 223.327C88.4753 222.671 91.8934 223.007 94.9998 224.294C98.1061 225.581 100.761 227.76 102.629 230.555C104.497 233.351 105.494 236.638 105.494 240C105.489 244.507 103.696 248.828 100.509 252.015C97.3224 255.202 93.0013 256.995 88.4942 257ZM88.4942 225C85.5274 225 82.6273 225.88 80.1606 227.528C77.6939 229.176 75.7713 231.519 74.636 234.26C73.5006 237.001 73.2036 240.017 73.7824 242.926C74.3612 245.836 75.7898 248.509 77.8875 250.607C79.9853 252.704 82.6581 254.133 85.5678 254.712C88.4775 255.291 91.4935 254.994 94.2344 253.858C96.9753 252.723 99.318 250.8 100.966 248.334C102.614 245.867 103.494 242.967 103.494 240C103.49 236.023 101.908 232.21 99.0959 229.398C96.2838 226.586 92.4711 225.004 88.4942 225Z" fill="#3F3D56"/>
<path d="M20.4942 510C17.1319 510 13.8451 509.003 11.0495 507.135C8.25383 505.267 6.07489 502.612 4.7882 499.506C3.50151 496.399 3.16485 492.981 3.8208 489.683C4.47674 486.386 6.09586 483.357 8.47335 480.979C10.8508 478.602 13.8799 476.983 17.1776 476.327C20.4753 475.671 23.8934 476.007 26.9998 477.294C30.1061 478.581 32.7612 480.76 34.6291 483.555C36.4971 486.351 37.4942 489.638 37.4942 493C37.4891 497.507 35.6965 501.828 32.5094 505.015C29.3224 508.202 25.0013 509.995 20.4942 510ZM20.4942 478C17.5274 478 14.6273 478.88 12.1606 480.528C9.69387 482.176 7.77127 484.519 6.63595 487.26C5.50064 490.001 5.2036 493.017 5.78237 495.926C6.36115 498.836 7.78975 501.509 9.88754 503.607C11.9853 505.704 14.6581 507.133 17.5678 507.712C20.4775 508.291 23.4935 507.994 26.2344 506.858C28.9753 505.723 31.318 503.8 32.9662 501.334C34.6144 498.867 35.4942 495.967 35.4942 493C35.4897 489.023 33.908 485.21 31.0959 482.398C28.2838 479.586 24.4711 478.004 20.4942 478Z" fill="#3F3D56"/>
<path d="M89.4941 382C98.3307 382 105.494 374.837 105.494 366C105.494 357.163 98.3307 350 89.4941 350C80.6576 350 73.4941 357.163 73.4941 366C73.4941 374.837 80.6576 382 89.4941 382Z" fill="#605BFF"/>
<path d="M288 398C305.121 398 319 384.121 319 367C319 349.879 305.121 336 288 336C270.879 336 257 349.879 257 367C257 384.121 270.879 398 288 398Z" fill="#605BFF"/>
<path d="M668.494 239H502.494V241H668.494V239Z" fill="#3F3D56"/>
<path d="M487.494 255.851H485.494V350H487.494V255.851Z" fill="#3F3D56"/>
<path d="M469.494 365H336.494V367H469.494V365Z" fill="#3F3D56"/>
<path d="M708.494 374H570.494V376H708.494V374Z" fill="#3F3D56"/>
<path d="M556.494 392H554.494V477H556.494V392Z" fill="#3F3D56"/>
<path d="M538.494 492H303.494V494H538.494V492Z" fill="#3F3D56"/>
<path d="M288.494 415H286.494V477H288.494V415Z" fill="#3F3D56"/>
<path d="M486.494 256C495.331 256 502.494 248.837 502.494 240C502.494 231.163 495.331 224 486.494 224C477.658 224 470.494 231.163 470.494 240C470.494 248.837 477.658 256 486.494 256Z" fill="#605BFF"/>
<path d="M466.494 183C463.132 183 459.845 182.003 457.049 180.135C454.254 178.267 452.075 175.612 450.788 172.506C449.502 169.399 449.165 165.981 449.821 162.683C450.477 159.386 452.096 156.357 454.473 153.979C456.851 151.602 459.88 149.983 463.178 149.327C466.475 148.671 469.893 149.007 473 150.294C476.106 151.581 478.761 153.76 480.629 156.555C482.497 159.351 483.494 162.638 483.494 166C483.489 170.507 481.696 174.828 478.509 178.015C475.322 181.202 471.001 182.995 466.494 183ZM466.494 151C463.527 151 460.627 151.88 458.161 153.528C455.694 155.176 453.771 157.519 452.636 160.26C451.501 163.001 451.204 166.017 451.782 168.926C452.361 171.836 453.79 174.509 455.888 176.607C457.985 178.704 460.658 180.133 463.568 180.712C466.478 181.291 469.494 180.994 472.234 179.858C474.975 178.723 477.318 176.8 478.966 174.334C480.614 171.867 481.494 168.967 481.494 166C481.49 162.023 479.908 158.21 477.096 155.398C474.284 152.586 470.471 151.004 466.494 151Z" fill="#3F3D56"/>
<path d="M287.494 183C284.132 183 280.845 182.003 278.049 180.135C275.254 178.267 273.075 175.612 271.788 172.506C270.502 169.399 270.165 165.981 270.821 162.683C271.477 159.386 273.096 156.357 275.473 153.979C277.851 151.602 280.88 149.983 284.178 149.327C287.475 148.671 290.893 149.007 294 150.294C297.106 151.581 299.761 153.76 301.629 156.555C303.497 159.351 304.494 162.638 304.494 166C304.489 170.507 302.696 174.828 299.509 178.015C296.322 181.202 292.001 182.995 287.494 183ZM287.494 151C284.527 151 281.627 151.88 279.161 153.528C276.694 155.176 274.771 157.519 273.636 160.26C272.501 163.001 272.204 166.017 272.782 168.926C273.361 171.836 274.79 174.509 276.888 176.607C278.985 178.704 281.658 180.133 284.568 180.712C287.478 181.291 290.494 180.994 293.234 179.858C295.975 178.723 298.318 176.8 299.966 174.334C301.614 171.867 302.494 168.967 302.494 166C302.49 162.023 300.908 158.21 298.096 155.398C295.284 152.586 291.471 151.004 287.494 151Z" fill="#3F3D56"/>
<path d="M554.494 393C551.132 393 547.845 392.003 545.049 390.135C542.254 388.267 540.075 385.612 538.788 382.506C537.502 379.399 537.165 375.981 537.821 372.683C538.477 369.386 540.096 366.357 542.473 363.979C544.851 361.602 547.88 359.983 551.178 359.327C554.475 358.671 557.893 359.007 561 360.294C564.106 361.581 566.761 363.76 568.629 366.555C570.497 369.351 571.494 372.638 571.494 376C571.489 380.507 569.696 384.828 566.509 388.015C563.322 391.202 559.001 392.995 554.494 393ZM554.494 361C551.527 361 548.627 361.88 546.161 363.528C543.694 365.176 541.771 367.519 540.636 370.26C539.501 373.001 539.204 376.017 539.782 378.926C540.361 381.836 541.79 384.509 543.888 386.607C545.985 388.704 548.658 390.133 551.568 390.712C554.478 391.291 557.494 390.994 560.234 389.858C562.975 388.723 565.318 386.8 566.966 384.334C568.614 381.867 569.494 378.967 569.494 376C569.49 372.023 567.908 368.21 565.096 365.398C562.284 362.586 558.471 361.004 554.494 361Z" fill="#3F3D56"/>
<path d="M554.494 509C563.331 509 570.494 501.837 570.494 493C570.494 484.163 563.331 477 554.494 477C545.658 477 538.494 484.163 538.494 493C538.494 501.837 545.658 509 554.494 509Z" fill="#605BFF"/>
<path d="M287.494 510C284.132 510 280.845 509.003 278.049 507.135C275.254 505.267 273.075 502.612 271.788 499.506C270.502 496.399 270.165 492.981 270.821 489.683C271.477 486.386 273.096 483.357 275.473 480.979C277.851 478.602 280.88 476.983 284.178 476.327C287.475 475.671 290.893 476.007 294 477.294C297.106 478.581 299.761 480.76 301.629 483.555C303.497 486.351 304.494 489.638 304.494 493C304.489 497.507 302.696 501.828 299.509 505.015C296.322 508.202 292.001 509.995 287.494 510ZM287.494 478C284.527 478 281.627 478.88 279.161 480.528C276.694 482.176 274.771 484.519 273.636 487.26C272.501 490.001 272.204 493.017 272.782 495.926C273.361 498.836 274.79 501.509 276.888 503.607C278.985 505.704 281.658 507.133 284.568 507.712C287.478 508.291 290.494 507.994 293.234 506.858C295.975 505.723 298.318 503.8 299.966 501.334C301.614 498.867 302.494 495.967 302.494 493C302.49 489.023 300.908 485.21 298.096 482.398C295.284 479.586 291.471 478.004 287.494 478Z" fill="#3F3D56"/>
<path d="M485.494 383C482.132 383 478.845 382.003 476.049 380.135C473.254 378.267 471.075 375.612 469.788 372.506C468.502 369.399 468.165 365.981 468.821 362.683C469.477 359.386 471.096 356.357 473.473 353.979C475.851 351.602 478.88 349.983 482.178 349.327C485.475 348.671 488.893 349.007 492 350.294C495.106 351.581 497.761 353.76 499.629 356.555C501.497 359.351 502.494 362.638 502.494 366C502.489 370.507 500.696 374.828 497.509 378.015C494.322 381.202 490.001 382.995 485.494 383ZM485.494 351C482.527 351 479.627 351.88 477.161 353.528C474.694 355.176 472.771 357.519 471.636 360.26C470.501 363.001 470.204 366.017 470.782 368.926C471.361 371.836 472.79 374.509 474.888 376.607C476.985 378.704 479.658 380.133 482.568 380.712C485.478 381.291 488.494 380.994 491.234 379.858C493.975 378.723 496.318 376.8 497.966 374.334C499.614 371.867 500.494 368.967 500.494 366C500.49 362.023 498.908 358.21 496.096 355.398C493.284 352.586 489.471 351.004 485.494 351Z" fill="#3F3D56"/>
<path d="M20.4941 342C16.5385 342 12.6717 343.173 9.38275 345.371C6.09377 347.568 3.53029 350.692 2.01654 354.346C0.502789 358.001 0.106746 362.022 0.87845 365.902C1.65015 369.781 3.55497 373.345 6.35202 376.142C9.14907 378.939 12.7127 380.844 16.5923 381.616C20.472 382.387 24.4933 381.991 28.1478 380.478C31.8023 378.964 34.9259 376.4 37.1235 373.111C39.3212 369.822 40.4941 365.956 40.4941 362C40.4786 356.7 38.3665 351.622 34.6191 347.875C30.8718 344.128 25.7937 342.016 20.4941 342ZM20.4941 348C21.6808 348 22.8409 348.352 23.8276 349.011C24.8143 349.67 25.5833 350.608 26.0374 351.704C26.4915 352.8 26.6104 354.007 26.3788 355.171C26.1473 356.334 25.5759 357.404 24.7368 358.243C23.8977 359.082 22.8286 359.653 21.6647 359.885C20.5008 360.116 19.2944 359.997 18.198 359.543C17.1017 359.089 16.1646 358.32 15.5053 357.333C14.846 356.347 14.4941 355.187 14.4941 354C14.4994 352.41 15.1333 350.887 16.2574 349.763C17.3814 348.639 18.9045 348.005 20.4941 348ZM20.4941 376.885C18.1239 376.874 15.7921 376.285 13.701 375.169C11.6099 374.053 9.82258 372.444 8.49414 370.481C8.5903 366.481 16.4941 364.279 20.4941 364.279C24.4941 364.279 32.398 366.481 32.4941 370.481C31.1642 372.442 29.3766 374.05 27.2858 375.166C25.195 376.282 22.864 376.872 20.4941 376.885Z" fill="#3F3D56"/>
<path d="M89.4941 69C85.5385 69 81.6717 70.173 78.3828 72.3706C75.0938 74.5682 72.5303 77.6918 71.0165 81.3463C69.5028 85.0009 69.1067 89.0222 69.8784 92.9018C70.6502 96.7814 72.555 100.345 75.352 103.142C78.1491 105.939 81.7127 107.844 85.5923 108.616C89.472 109.387 93.4933 108.991 97.1478 107.478C100.802 105.964 103.926 103.4 106.124 100.111C108.321 96.8224 109.494 92.9556 109.494 89C109.479 83.7004 107.367 78.6224 103.619 74.875C99.8718 71.1276 94.7937 69.0155 89.4941 69ZM89.4941 75C90.6808 75 91.8409 75.3519 92.8276 76.0112C93.8143 76.6705 94.5833 77.6075 95.0374 78.7039C95.4915 79.8003 95.6104 81.0067 95.3788 82.1705C95.1473 83.3344 94.5759 84.4035 93.7368 85.2426C92.8977 86.0818 91.8286 86.6532 90.6647 86.8847C89.5008 87.1162 88.2944 86.9974 87.198 86.5433C86.1017 86.0891 85.1646 85.3201 84.5053 84.3334C83.846 83.3467 83.4941 82.1867 83.4941 81C83.4994 79.4103 84.1333 77.8873 85.2574 76.7632C86.3814 75.6392 87.9045 75.0053 89.4941 75ZM89.4941 103.885C87.1239 103.874 84.7921 103.285 82.701 102.169C80.6099 101.053 78.8226 99.4438 77.4941 97.4808C77.5903 93.4808 85.4941 91.2789 89.4941 91.2789C93.4941 91.2789 101.398 93.4808 101.494 97.4808C100.164 99.4423 98.3766 101.05 96.2858 102.166C94.195 103.282 91.864 103.872 89.4941 103.885Z" fill="#3F3D56"/>
<path d="M466.494 0C462.539 0 458.672 1.17298 455.383 3.37061C452.094 5.56824 449.53 8.69181 448.017 12.3463C446.503 16.0009 446.107 20.0222 446.878 23.9018C447.65 27.7814 449.555 31.3451 452.352 34.1421C455.149 36.9392 458.713 38.844 462.592 39.6157C466.472 40.3874 470.493 39.9913 474.148 38.4776C477.802 36.9638 480.926 34.4004 483.123 31.1114C485.321 27.8224 486.494 23.9556 486.494 20C486.479 14.7004 484.367 9.62237 480.619 5.875C476.872 2.12763 471.794 0.0155124 466.494 0ZM466.494 6C467.681 6 468.841 6.3519 469.828 7.01118C470.814 7.67047 471.583 8.60755 472.037 9.7039C472.492 10.8003 472.61 12.0067 472.379 13.1705C472.147 14.3344 471.576 15.4035 470.737 16.2426C469.898 17.0818 468.829 17.6532 467.665 17.8847C466.501 18.1162 465.294 17.9974 464.198 17.5433C463.102 17.0892 462.165 16.3201 461.505 15.3334C460.846 14.3467 460.494 13.1867 460.494 12C460.499 10.4103 461.133 8.88729 462.257 7.76322C463.381 6.63915 464.904 6.00531 466.494 6ZM466.494 34.8846C464.124 34.8738 461.792 34.2849 459.701 33.169C457.61 32.053 455.823 30.4438 454.494 28.4808C454.59 24.4808 462.494 22.2789 466.494 22.2789C470.494 22.2789 478.398 24.4808 478.494 28.4808C477.164 30.4423 475.377 32.0504 473.286 33.1662C471.195 34.2819 468.864 34.8717 466.494 34.8846Z" fill="#3F3D56"/>
<path d="M696.494 219C692.539 219 688.672 220.173 685.383 222.371C682.094 224.568 679.53 227.692 678.017 231.346C676.503 235.001 676.107 239.022 676.878 242.902C677.65 246.781 679.555 250.345 682.352 253.142C685.149 255.939 688.713 257.844 692.592 258.616C696.472 259.387 700.493 258.991 704.148 257.478C707.802 255.964 710.926 253.4 713.124 250.111C715.321 246.822 716.494 242.956 716.494 239C716.479 233.7 714.367 228.622 710.619 224.875C706.872 221.128 701.794 219.016 696.494 219ZM696.494 225C697.681 225 698.841 225.352 699.828 226.011C700.814 226.67 701.583 227.608 702.037 228.704C702.492 229.8 702.61 231.007 702.379 232.171C702.147 233.334 701.576 234.404 700.737 235.243C699.898 236.082 698.829 236.653 697.665 236.885C696.501 237.116 695.294 236.997 694.198 236.543C693.102 236.089 692.165 235.32 691.505 234.333C690.846 233.347 690.494 232.187 690.494 231C690.499 229.41 691.133 227.887 692.257 226.763C693.381 225.639 694.904 225.005 696.494 225ZM696.494 253.885C694.124 253.874 691.792 253.285 689.701 252.169C687.61 251.053 685.823 249.444 684.494 247.481C684.59 243.481 692.494 241.279 696.494 241.279C700.494 241.279 708.398 243.481 708.494 247.481C707.164 249.442 705.377 251.05 703.286 252.166C701.195 253.282 698.864 253.872 696.494 253.885Z" fill="#3F3D56"/>
<path d="M734.494 354C730.539 354 726.672 355.173 723.383 357.371C720.094 359.568 717.53 362.692 716.017 366.346C714.503 370.001 714.107 374.022 714.878 377.902C715.65 381.781 717.555 385.345 720.352 388.142C723.149 390.939 726.713 392.844 730.592 393.616C734.472 394.387 738.493 393.991 742.148 392.478C745.802 390.964 748.926 388.4 751.124 385.111C753.321 381.822 754.494 377.956 754.494 374C754.479 368.7 752.367 363.622 748.619 359.875C744.872 356.128 739.794 354.016 734.494 354ZM734.494 360C735.681 360 736.841 360.352 737.828 361.011C738.814 361.67 739.583 362.608 740.037 363.704C740.492 364.8 740.61 366.007 740.379 367.171C740.147 368.334 739.576 369.404 738.737 370.243C737.898 371.082 736.829 371.653 735.665 371.885C734.501 372.116 733.294 371.997 732.198 371.543C731.102 371.089 730.165 370.32 729.505 369.333C728.846 368.347 728.494 367.187 728.494 366C728.499 364.41 729.133 362.887 730.257 361.763C731.381 360.639 732.905 360.005 734.494 360ZM734.494 388.885C732.124 388.874 729.792 388.285 727.701 387.169C725.61 386.053 723.823 384.444 722.494 382.481C722.59 378.481 730.494 376.279 734.494 376.279C738.494 376.279 746.398 378.481 746.494 382.481C745.164 384.442 743.377 386.05 741.286 387.166C739.195 388.282 736.864 388.872 734.494 388.885Z" fill="#3F3D56"/>
<path d="M304 376.104C304 380.524 296.836 384.104 288 384.104C279.164 384.104 272 380.524 272 376.104V368.052C273.004 369.286 274.43 370.31 276.016 371.102C279.16 372.674 283.4 373.604 288 373.604C292.6 373.604 296.84 372.674 299.984 371.104C301.57 370.31 302.996 369.284 304 368.052V376.104Z" fill="#1E1E1E"/>
<path d="M288 363.052C292.6 363.052 296.84 362.122 299.984 360.552C301.57 359.758 302.996 358.732 304 357.5V365.552C304 366.552 300.428 368.734 298.642 369.868C295.996 371.19 292.236 372.052 288 372.052C283.764 372.052 280.004 371.192 277.358 369.868C275 368.688 272 366.552 272 365.552V357.5C273.004 358.734 274.43 359.758 276.016 360.55C279.16 362.122 283.4 363.052 288 363.052Z" fill="#1E1E1E"/>
<path d="M298.641 359.316C295.995 360.638 292.235 361.5 287.999 361.5C283.763 361.5 280.003 360.64 277.357 359.316C276.327 358.912 274.011 357.63 272.403 355.558C272.267 355.384 272.169 355.184 272.113 354.97C272.057 354.757 272.046 354.534 272.079 354.316C272.125 354.02 272.189 353.714 272.271 353.524C273.655 349.812 280.171 347 287.999 347C295.827 347 302.343 349.812 303.727 353.524C303.809 353.714 303.873 354.02 303.919 354.316C303.953 354.534 303.941 354.757 303.886 354.97C303.83 355.184 303.731 355.384 303.595 355.558C301.987 357.63 299.671 358.912 298.641 359.316Z" fill="#1E1E1E"/>
</svg>
