<svg width="686" height="581" viewBox="0 0 686 581" fill="none" xmlns="http://www.w3.org/2000/svg">
<path d="M623.475 289.04C623.483 303.594 621.788 318.1 618.425 332.26C598.935 414.14 525.314 475.04 437.475 475.04C334.755 475.04 251.475 391.76 251.475 289.04C251.465 255.161 260.711 221.922 278.213 192.913C295.715 163.905 320.809 140.228 350.785 124.44C350.794 124.44 350.805 124.43 350.814 124.43C355.854 121.76 361.034 119.326 366.354 117.13C395.78 105.013 427.81 100.604 459.415 104.32C462.125 104.64 464.825 105.02 467.495 105.45C471.845 106.16 476.138 107.017 480.374 108.02C481.444 108.26 482.504 108.52 483.555 108.8C483.765 108.85 483.965 108.91 484.175 108.96C484.385 109.01 484.584 109.06 484.785 109.12H484.794C485.194 109.22 485.595 109.32 485.995 109.43C486.975 109.7 487.955 109.97 488.935 110.26C491.965 111.12 494.962 112.064 497.925 113.09C498.394 113.25 498.854 113.41 499.325 113.57C499.564 113.66 499.794 113.74 500.035 113.83C500.285 113.91 500.524 114 500.774 114.09C507.43 116.496 513.94 119.284 520.274 122.44L510.524 119.3C541.715 135.29 568.715 163.52 591.245 203.63C591.413 202.63 591.881 201.705 592.586 200.977C593.292 200.249 594.202 199.752 595.196 199.553C596.19 199.353 597.221 199.46 598.153 199.86C599.085 200.259 599.874 200.933 600.415 201.79C600.549 202.004 600.666 202.228 600.765 202.46C601.026 203.063 601.167 203.711 601.178 204.368C601.189 205.025 601.07 205.678 600.829 206.289C600.587 206.9 600.228 207.458 599.77 207.93C599.313 208.402 598.768 208.779 598.165 209.04C598.13 209.058 598.093 209.071 598.055 209.08L614.075 250.73C615.221 250.69 616.362 250.905 617.415 251.36C617.677 249.971 618.139 248.627 618.785 247.37C619.104 248.75 619.405 250.14 619.694 251.54C619.794 252.06 619.905 252.57 619.995 253.09V253.1C620.544 255.85 621.024 258.627 621.435 261.43C621.475 261.66 621.505 261.88 621.544 262.11V262.12C621.705 263.22 621.854 264.33 621.995 265.44C622.734 271.31 623.198 277.263 623.385 283.3C623.444 285.21 623.475 287.12 623.475 289.04Z" fill="#F2F2F2"/>
<path d="M614.187 259.711C615.81 301.229 617.434 342.816 615.561 384.356C613.701 425.607 607.832 466.564 602.69 507.499L593.953 577.058H596.953C596.962 570.179 590.403 564.125 583.482 565.19C576.865 566.207 572.392 573.279 573.851 579.694L576.592 578.538C572.033 569.341 565.013 557.454 552.915 558.895C547.229 559.573 543.566 563.86 539.417 567.318C534.949 570.917 529.59 573.239 523.909 574.039C518.228 574.839 512.437 574.086 507.149 571.861C505.396 571.099 503.867 573.683 505.635 574.451C510.316 576.466 515.38 577.438 520.474 577.299C525.569 577.161 530.572 575.916 535.137 573.65C537.427 572.501 539.576 571.088 541.538 569.44C543.616 567.708 545.485 565.705 547.704 564.147C552.532 560.757 558.201 561.41 562.95 564.636C568.279 568.255 571.228 574.456 574.002 580.052C574.784 581.629 577.107 580.494 576.743 578.896C576.29 576.53 576.78 574.08 578.111 572.072C579.441 570.063 581.505 568.655 583.861 568.15C589.024 567.275 593.96 571.994 593.953 577.058C593.95 579.044 596.719 578.918 596.953 577.058C602.137 535.786 607.512 494.532 612.459 453.23C614.897 432.866 617.035 412.459 618.177 391.977C619.334 371.234 619.562 350.449 619.302 329.678C619.009 306.345 618.098 283.026 617.187 259.711C617.112 257.787 614.112 257.777 614.187 259.711Z" fill="#CCCCCC"/>
<path d="M617.354 260.73L615.484 261.43C614.194 257.971 612.881 254.567 611.544 251.22C583.805 181.73 546.685 136.67 501.015 117.031C500.325 116.73 499.635 116.44 498.935 116.16C498.005 115.77 497.064 115.39 496.125 115.04C494.605 114.44 493.064 113.88 491.524 113.35C489.465 112.64 487.402 111.984 485.334 111.38C484.834 111.23 484.325 111.08 483.825 110.95C482.035 110.44 480.255 109.97 478.465 109.56C435.734 99.3303 391.975 109.991 350.814 124.43C350.805 124.43 350.794 124.44 350.785 124.44C338.215 128.85 325.874 133.62 313.894 138.25C269.595 155.37 230.644 170.42 203.495 157.41C202.455 156.92 201.435 156.38 200.435 155.8C199.354 155.17 198.285 154.491 197.245 153.77C197.115 153.68 196.984 153.59 196.865 153.491C195.745 152.69 194.644 151.83 193.575 150.91C191.985 149.542 190.491 148.065 189.104 146.491C188.834 146.19 188.564 145.89 188.305 145.58C188.255 145.51 188.194 145.44 188.145 145.38C186.095 142.906 184.3 140.233 182.785 137.4C173.405 120 173.845 97.0003 174.274 74.6003C174.734 50.3601 175.185 27.3104 162.925 13.9002C161.17 11.9657 159.173 10.2651 156.984 8.8401C154.8 7.40791 152.454 6.23976 149.995 5.3601C123.624 -4.19996 78.2846 14.6101 14.9546 61.4104C12.8545 62.9602 10.7446 64.5403 8.60452 66.1501L7.39453 64.55C9.53467 62.9402 11.6548 61.3503 13.7549 59.8C43.7046 37.6804 69.8745 21.6404 91.6548 12.05C116.555 1.08031 136.425 -1.75952 150.885 3.5603C153.415 4.48038 155.831 5.68835 158.084 7.16039C160.338 8.63336 162.407 10.3724 164.245 12.3401C177.205 26.26 176.745 49.8401 176.274 74.6301C175.875 95.7004 175.455 117.31 183.325 134C185.067 137.744 187.293 141.244 189.944 144.41C190.105 144.6 190.274 144.79 190.435 144.98C191.814 146.555 193.301 148.032 194.885 149.4C195.814 150.21 196.774 150.96 197.755 151.67C198.896 152.503 200.081 153.274 201.305 153.98C202.675 154.781 204.091 155.502 205.544 156.14C231.935 167.78 269.984 153.07 313.175 136.38C330.294 129.76 348.115 122.88 366.354 117.13C396.665 107.57 428.135 101.14 459.415 104.32C461.915 104.56 464.425 104.88 466.925 105.27C471.435 105.95 475.935 106.84 480.425 107.97C481.475 108.23 482.515 108.51 483.555 108.8C483.965 108.9 484.365 109.02 484.774 109.14C485.175 109.25 485.584 109.36 485.984 109.48C488.044 110.09 490.115 110.75 492.175 111.46C493.925 112.07 495.675 112.71 497.405 113.38C498.035 113.63 498.675 113.88 499.315 114.15C499.885 114.38 500.465 114.62 501.035 114.86C504.234 116.22 507.405 117.69 510.525 119.3C541.715 135.29 568.715 163.52 591.245 203.63C592.245 205.41 593.245 207.22 594.225 209.06C596.535 213.35 598.791 217.77 600.995 222.32C605.365 231.3 609.535 240.78 613.505 250.76C614.415 253.02 615.308 255.31 616.185 257.63C616.575 258.66 616.965 259.69 617.354 260.73Z" fill="#CCCCCC"/>
<path d="M8 73.3486C12.4183 73.3486 16 69.7669 16 65.3486C16 60.9304 12.4183 57.3486 8 57.3486C3.58172 57.3486 0 60.9304 0 65.3486C0 69.7669 3.58172 73.3486 8 73.3486Z" fill="#605BFF"/>
<path d="M157.533 16C161.951 16 165.533 12.4183 165.533 8C165.533 3.58172 161.951 0 157.533 0C153.115 0 149.533 3.58172 149.533 8C149.533 12.4183 153.115 16 157.533 16Z" fill="#605BFF"/>
<path d="M154.683 114.562L153.328 116.033L236.966 193.084L238.321 191.613L154.683 114.562Z" fill="#3F3D56"/>
<path d="M154.004 120.296C156.765 120.296 159.004 118.058 159.004 115.296C159.004 112.535 156.765 110.296 154.004 110.296C151.242 110.296 149.004 112.535 149.004 115.296C149.004 118.058 151.242 120.296 154.004 120.296Z" fill="#605BFF"/>
<path d="M236.424 58.6606L222.944 68.9204L204.494 82.9707C194.929 90.2226 188.548 100.901 186.694 112.76L183.324 134.001L182.784 137.4L182.364 140.061L181.994 142.44L180.884 149.411C180.804 149.895 180.882 150.393 181.106 150.83C181.33 151.267 181.689 151.621 182.129 151.839C182.569 152.057 183.068 152.128 183.551 152.041C184.035 151.955 184.478 151.715 184.815 151.358C184.714 149.286 185.425 147.257 186.796 145.7C188.167 144.144 190.091 143.184 192.159 143.023C192.684 127.381 201.172 120.389 214.034 118.15L214.164 118L214.074 118.181C216.131 135.381 210.948 144.278 200.154 146.741L199.884 147.294C199.972 147.461 200.061 147.627 200.137 147.803C200.609 148.885 200.836 150.057 200.8 151.237C200.765 152.416 200.469 153.573 199.933 154.625C199.397 155.676 198.635 156.595 197.702 157.317C196.768 158.039 195.686 158.545 194.534 158.798C194.529 159.008 194.552 159.217 194.604 159.42C194.699 159.766 194.874 160.085 195.114 160.351C195.353 160.618 195.652 160.825 195.985 160.957C196.318 161.089 196.678 161.142 197.035 161.111C197.392 161.08 197.738 160.967 198.044 160.781L200.354 159.351L202.124 158.26L203.494 157.411L205.544 156.141L230.014 141.01C240.039 134.832 247.26 124.988 250.144 113.57L255.944 90.7602L260.124 74.3403L236.424 58.6606Z" fill="#E6E6E6"/>
<path d="M236.326 196.828C239.088 196.828 241.326 194.589 241.326 191.828C241.326 189.066 239.088 186.828 236.326 186.828C233.565 186.828 231.326 189.066 231.326 191.828C231.326 194.589 233.565 196.828 236.326 196.828Z" fill="#605BFF"/>
<path d="M667.593 330.43L666.443 315.04V315.03L665.863 307.3C664.991 295.331 659.514 284.166 650.583 276.15L650.463 276.05L650.453 276.04L623.013 251.31C622.646 250.968 622.176 250.758 621.676 250.713C621.176 250.668 620.676 250.79 620.253 251.06C620.041 251.187 619.851 251.35 619.693 251.54C619.505 251.765 619.364 252.024 619.277 252.304C620.986 253.414 622.206 255.135 622.686 257.116C623.166 259.096 622.871 261.185 621.861 262.954L622.743 266.09V266.1C631.898 272.936 634.13 283.232 631.153 296.13L631.213 296.33L631.113 296.16C619.352 289.166 612.319 279.953 613.513 266.881C612.457 266.694 611.449 266.297 610.55 265.712C609.651 265.128 608.879 264.368 608.279 263.478C607.68 262.589 607.266 261.587 607.063 260.534C606.859 259.481 606.869 258.398 607.094 257.349C606.883 257.283 606.663 257.25 606.443 257.25C606.24 257.247 606.038 257.274 605.843 257.33C605.358 257.451 604.926 257.73 604.617 258.123C604.307 258.516 604.137 259 604.133 259.5L603.293 297.08C603.005 308.852 607.321 320.271 615.323 328.91L618.423 332.26L631.293 346.2L642.783 358.65L664.783 349.1L664.793 349.09L668.853 347.33L667.593 330.43Z" fill="#CCCCCC"/>
<path d="M192.71 156.231C195.893 156.231 198.474 153.651 198.474 150.468C198.474 147.285 195.893 144.705 192.71 144.705C189.528 144.705 186.947 147.285 186.947 150.468C186.947 153.651 189.528 156.231 192.71 156.231Z" fill="#605BFF"/>
<path d="M215.848 118.591C218.057 118.591 219.848 116.8 219.848 114.591C219.848 112.382 218.057 110.591 215.848 110.591C213.639 110.591 211.848 112.382 211.848 114.591C211.848 116.8 213.639 118.591 215.848 118.591Z" fill="#3F3D56"/>
<path d="M616.665 257.45L616.185 257.63L614.795 258.17L612.055 251.05L601.015 222.36L600.995 222.32L596.055 209.46H596.045L594.465 205.34L596.335 204.62L598.055 209.08L614.075 250.73L616.665 257.45Z" fill="#3F3D56"/>
<path d="M598.163 209.04C598.129 209.058 598.092 209.071 598.054 209.08C597.42 209.342 596.739 209.471 596.054 209.46H596.043C595.417 209.439 594.801 209.304 594.223 209.06C593.045 208.559 592.104 207.625 591.594 206.45C591.203 205.565 591.082 204.584 591.244 203.63C591.412 202.63 591.88 201.705 592.585 200.977C593.291 200.249 594.201 199.752 595.195 199.553C596.189 199.353 597.22 199.461 598.152 199.86C599.084 200.26 599.873 200.933 600.413 201.79C600.548 202.004 600.665 202.228 600.764 202.46C601.025 203.063 601.166 203.711 601.177 204.368C601.188 205.025 601.069 205.678 600.827 206.289C600.586 206.9 600.226 207.458 599.769 207.93C599.312 208.402 598.766 208.779 598.163 209.04Z" fill="#605BFF"/>
<path d="M620.924 261.251C620.916 261.281 620.903 261.309 620.886 261.335V261.343C620.672 261.809 620.397 262.245 620.068 262.638C619.45 263.394 618.659 263.992 617.763 264.381C616.769 264.814 615.679 264.979 614.602 264.859V264.851C613.527 264.729 612.504 264.325 611.635 263.681C610.766 263.036 610.082 262.174 609.652 261.181C609.154 260.053 609.011 258.8 609.243 257.588C609.427 256.598 609.851 255.667 610.479 254.879C611.107 254.091 611.919 253.47 612.844 253.07C612.952 253.024 613.068 252.978 613.175 252.939C613.307 252.893 613.438 252.847 613.569 252.808C613.934 252.7 614.308 252.625 614.687 252.584C614.833 252.569 614.98 252.561 615.126 252.561C616.01 252.53 616.89 252.696 617.701 253.047C618.203 253.257 618.674 253.532 619.105 253.864V253.872C619.312 254.027 619.508 254.197 619.691 254.381V254.389C620.226 254.933 620.657 255.571 620.963 256.27C621.306 257.056 621.48 257.906 621.473 258.764C621.467 259.622 621.28 260.47 620.924 261.251Z" fill="#605BFF"/>
<path d="M633.158 303.598C635.367 303.598 637.158 301.807 637.158 299.598C637.158 297.389 635.367 295.598 633.158 295.598C630.949 295.598 629.158 297.389 629.158 299.598C629.158 301.807 630.949 303.598 633.158 303.598Z" fill="#3F3D56"/>
<path d="M552.914 130.85L552.304 132.75L547.214 131.11L520.274 122.44L510.524 119.3L501.034 116.25L499.084 115.62L496.334 114.73L485.394 111.21L483.904 110.74L478.974 109.15L467.494 105.45L466.924 105.27L378.943 76.9498L373.564 75.2198L374.174 73.3198L379.264 74.9598L480.824 107.65L484.894 108.96L486.034 109.32L488.934 110.26L497.844 113.12L499.324 113.6L500.744 114.06L547.534 129.12L552.914 130.85Z" fill="#3F3D56"/>
<path d="M501.033 114.86C500.995 114.59 500.907 114.328 500.773 114.09L500.743 114.061C500.462 113.576 500.008 113.216 499.473 113.05C499.416 113.028 499.355 113.014 499.293 113.01H499.291C499.39 114.093 499.267 115.184 498.929 116.218C498.591 117.251 498.046 118.205 497.326 119.02C496.607 119.835 495.728 120.495 494.745 120.958C493.761 121.421 492.694 121.679 491.607 121.715L491.603 121.721C492.137 136.501 487.305 147.318 472.143 150.51L472.023 150.681L472.083 150.491C463.775 136.337 472.426 125.961 483.71 116.171C483.217 114.632 483.202 112.979 483.667 111.431C484.132 109.883 485.054 108.512 486.313 107.499L486.313 107.491C486.185 106.929 485.849 106.436 485.373 106.11C484.968 105.817 484.477 105.666 483.978 105.683C483.478 105.699 482.998 105.881 482.613 106.201L480.823 107.65L480.423 107.971L480.373 108.021L478.973 109.15L478.463 109.561L453.393 129.86C444.231 137.252 438.312 147.924 436.893 159.61L434.023 182.98L431.953 199.8L457.443 212.36L469.523 200.471L486.043 184.201C494.617 175.799 499.6 164.4 499.943 152.4L501.013 117.031L501.033 116.25L501.063 115.31C501.064 115.16 501.054 115.009 501.033 114.86Z" fill="#CCCCCC"/>
<path d="M374.268 80.186C377.029 80.186 379.268 77.9475 379.268 75.186C379.268 72.4246 377.029 70.186 374.268 70.186C371.506 70.186 369.268 72.4246 369.268 75.186C369.268 77.9475 371.506 80.186 374.268 80.186Z" fill="#605BFF"/>
<path d="M552.209 135.881C554.97 135.881 557.209 133.643 557.209 130.881C557.209 128.12 554.97 125.881 552.209 125.881C549.448 125.881 547.209 128.12 547.209 130.881C547.209 133.643 549.448 135.881 552.209 135.881Z" fill="#605BFF"/>
<path d="M470.785 158.271C472.994 158.271 474.785 156.481 474.785 154.271C474.785 152.062 472.994 150.271 470.785 150.271C468.576 150.271 466.785 152.062 466.785 154.271C466.785 156.481 468.576 158.271 470.785 158.271Z" fill="#3F3D56"/>
<path d="M263.995 94.5196C261.844 94.5185 259.741 93.8814 257.951 92.6886C238.758 91.1598 226.188 82.9444 220.423 67.8556C219.17 67.0232 218.1 65.9435 217.279 64.6826C216.458 63.4218 215.903 62.0065 215.649 60.5236C215.391 59.0375 215.444 57.5142 215.805 56.0497C216.165 54.5852 216.825 53.2114 217.744 52.0148C219.504 49.7874 222.043 48.3106 224.849 47.8823C227.656 47.454 230.52 48.1062 232.864 49.7072L234.889 51.047C234.894 48.9149 235.528 46.8315 236.709 45.0568L236.853 44.8449C237.545 43.8057 238.552 43.0158 239.726 42.5913C240.9 42.1668 242.18 42.1301 243.376 42.4865C244.655 42.8402 245.789 43.5892 246.617 44.6263C247.444 45.6634 247.922 46.9356 247.983 48.2609C248.014 48.7722 248.077 49.281 248.172 49.7843C248.521 51.5755 249.291 53.2579 250.419 54.6923C251.547 56.1267 253 57.2718 254.659 58.033C256.317 58.7942 258.133 59.1495 259.956 59.0696C261.779 58.9897 263.557 58.4768 265.143 57.5734C266.097 57.0288 267.174 56.7377 268.272 56.7278C269.371 56.7179 270.453 56.9895 271.417 57.5168C272.292 57.9873 273.027 58.6802 273.548 59.5257C274.069 60.3712 274.358 61.3393 274.386 62.3322C274.466 64.5412 273.876 66.7229 272.695 68.5914C271.514 70.4599 269.797 71.9281 267.767 72.8039L269.801 74.1505C272.257 75.7381 273.997 78.2207 274.652 81.071C275.306 83.9212 274.823 86.9143 273.306 89.4142C272.525 90.6511 271.504 91.7186 270.303 92.5533C269.102 93.388 267.745 93.973 266.314 94.2736C265.552 94.4369 264.775 94.5193 263.995 94.5196Z" fill="#3F3D56"/>
<path d="M452.856 230.322C452.266 230.321 451.68 230.232 451.116 230.059C449.993 229.72 448.992 229.061 448.236 228.163C447.48 227.265 447.002 226.166 446.86 225.001L446.841 224.867C446.548 222.904 445.751 221.051 444.529 219.487C443.307 217.924 441.702 216.703 439.868 215.944C438.035 215.185 436.036 214.913 434.066 215.156C432.097 215.398 430.224 216.146 428.629 217.327C427.815 217.913 426.866 218.284 425.87 218.403C424.874 218.523 423.864 218.388 422.935 218.011C422.006 217.633 421.187 217.026 420.556 216.247C419.925 215.467 419.503 214.54 419.328 213.552C418.96 211.365 419.264 209.118 420.198 207.107C421.133 205.096 422.655 203.415 424.563 202.286L422.063 201.053C420.714 200.386 419.517 199.451 418.543 198.304C417.569 197.157 416.84 195.824 416.401 194.385C415.957 192.943 415.817 191.425 415.99 189.927C416.162 188.428 416.643 186.981 417.403 185.678C418.867 183.246 421.2 181.46 423.929 180.68C426.659 179.901 429.583 180.186 432.111 181.479C449.495 179.065 462.776 185.79 472.153 201.211C473.502 201.878 474.699 202.814 475.673 203.961C476.647 205.107 477.376 206.441 477.816 207.879C478.259 209.321 478.399 210.839 478.226 212.337C478.054 213.836 477.572 215.282 476.813 216.585C475.349 219.018 473.017 220.804 470.287 221.583C467.557 222.363 464.633 222.078 462.106 220.786L459.928 219.712C460.192 221.828 459.827 223.975 458.879 225.884C458.446 226.766 457.896 227.585 457.245 228.321C456.698 228.947 456.024 229.45 455.267 229.795C454.51 230.14 453.688 230.32 452.856 230.322Z" fill="#3F3D56"/>
<path d="M647.513 376.626C646.079 376.643 644.673 376.239 643.467 375.465C642.26 374.691 641.307 373.581 640.725 372.271L640.659 372.119C639.802 370.166 639.54 368.004 639.906 365.903L637.349 367.014C636.008 367.596 634.565 367.906 633.103 367.924C631.641 367.942 630.191 367.669 628.836 367.12C627.481 366.571 626.249 365.757 625.212 364.727C624.175 363.697 623.354 362.47 622.796 361.118C621.737 358.393 621.782 355.362 622.922 352.669C624.062 349.976 626.206 347.834 628.9 346.697C636.063 330.158 649.193 323.589 669.523 329.044C672.11 327.876 675.043 327.732 677.732 328.642C680.421 329.551 682.665 331.446 684.012 333.945C684.708 335.282 685.12 336.75 685.22 338.255C685.321 339.76 685.108 341.269 684.596 342.688C684.088 344.104 683.296 345.401 682.268 346.5C681.241 347.599 679.999 348.476 678.621 349.078L676.064 350.189C677.849 351.355 679.251 353.022 680.095 354.98C680.217 355.262 680.327 355.546 680.425 355.832C680.892 357.194 680.947 358.663 680.582 360.055C680.216 361.448 679.448 362.701 678.373 363.658C677.283 364.681 675.916 365.358 674.442 365.605C672.969 365.852 671.455 365.659 670.091 365.048C668.654 364.412 667.1 364.08 665.527 364.074H665.47C663.355 364.124 661.293 364.745 659.503 365.871C657.712 366.997 656.259 368.586 655.299 370.471C655.072 370.89 654.87 371.322 654.695 371.765C654.149 373.18 653.193 374.399 651.948 375.265C650.704 376.131 649.228 376.605 647.712 376.624C647.645 376.625 647.579 376.626 647.513 376.626Z" fill="#3F3D56"/>
<path d="M490.878 118.573C493.968 118.573 496.473 116.068 496.473 112.978C496.473 109.888 493.968 107.383 490.878 107.383C487.788 107.383 485.283 109.888 485.283 112.978C485.283 116.068 487.788 118.573 490.878 118.573Z" fill="#605BFF"/>
</svg>
